<svg width="14" height="14" viewBox="0 0 14 14" fill="none" xmlns="http://www.w3.org/2000/svg">
<path d="M0.35 2.975L2.45 0H4.6375L2.8 2.625H8.3125C9.82092 2.625 11.2676 3.22422 12.3342 4.29083C13.4008 5.35744 14 6.80408 14 8.3125C14 9.82092 13.4008 11.2676 12.3342 12.3342C11.2676 13.4008 9.82092 14 8.3125 14H4.375L5.25 12.25H8.3125C9.35679 12.25 10.3583 11.8352 11.0967 11.0967C11.8352 10.3583 12.25 9.35679 12.25 8.3125C12.25 7.26821 11.8352 6.26669 11.0967 5.52827C10.3583 4.78984 9.35679 4.375 8.3125 4.375H2.8L4.6375 7H2.45L0.35 4.025L0 3.5L0.35 2.975Z" fill="#2D2F4E"/>
</svg>
