<svg width="44" height="32" viewBox="0 0 44 32" fill="none" xmlns="http://www.w3.org/2000/svg">
<path d="M1 1.5H32.1111M1 11.5H17M1 21.5H17M29.5078 21.5625C26.7445 19.4957 24.7734 17.2224 23.6968 15.9446C23.3634 15.549 23.2545 15.259 23.189 14.749C22.9645 13.0023 22.8523 12.1289 23.3645 11.5645C23.8768 11 24.7823 11 26.5934 11H39.4066C41.2177 11 42.1232 11 42.6355 11.5633C43.1477 12.1278 43.0355 13.0012 42.811 14.7479C42.7443 15.2579 42.6355 15.5479 42.3032 15.9434C41.2255 17.2235 39.251 19.5013 36.4811 21.5713C36.353 21.671 36.2471 21.7963 36.1702 21.9392C36.0933 22.0822 36.047 22.2396 36.0344 22.4014C35.76 25.4359 35.5066 27.0981 35.3489 27.9382C35.0944 29.296 33.1711 30.1127 32.14 30.8404C31.5267 31.2738 30.7822 30.7582 30.7034 30.0871C30.4083 27.5298 30.1587 24.9675 29.9545 22.4014C29.9431 22.238 29.8974 22.0789 29.8204 21.9344C29.7435 21.7898 29.637 21.6631 29.5078 21.5625Z" stroke="white" stroke-width="1.5" stroke-linecap="round" stroke-linejoin="round"/>
</svg>
