<svg width="18" height="17" viewBox="0 0 18 17" fill="none" xmlns="http://www.w3.org/2000/svg">
<path d="M16.8674 17.001L10.3699 10.5036C9.85114 10.9456 9.25452 11.2877 8.58008 11.5298C7.90564 11.7719 7.22774 11.8929 6.54639 11.8929C4.88485 11.8929 3.47856 11.3178 2.32751 10.1674C1.17647 9.01707 0.600952 7.61113 0.600952 5.94959C0.600952 4.28805 1.17578 2.88141 2.32544 1.72968C3.4751 0.577944 4.8807 0.00138595 6.54224 2.48824e-06C8.20378 -0.00138098 9.61076 0.57414 10.7632 1.72657C11.9156 2.87899 12.4922 4.28563 12.4929 5.94647C12.4929 6.66726 12.3652 7.36487 12.11 8.03931C11.8547 8.71375 11.5192 9.29065 11.1035 9.77002L17.601 16.2664L16.8674 17.001ZM6.54639 10.8543C7.92293 10.8543 9.08539 10.3805 10.0338 9.4328C10.9821 8.48513 11.456 7.32267 11.4553 5.94544C11.4546 4.5682 10.9807 3.40609 10.0338 2.45911C9.08677 1.51213 7.92466 1.03829 6.54742 1.0376C5.17019 1.03691 4.00773 1.51074 3.06006 2.45911C2.11239 3.40747 1.63855 4.56958 1.63855 5.94544C1.63855 7.32129 2.11239 8.4834 3.06006 9.43177C4.00773 10.3801 5.16984 10.855 6.54639 10.8543Z" fill="white"/>
</svg>
